<svg width="90" height="60" viewBox="0 0 90 60" fill="none" xmlns="http://www.w3.org/2000/svg">
<g filter="url(#filter0_d_209_1273)">
<path d="M34.9834 30.3254C35.7725 28.4968 36.4228 26.7916 37.2798 25.2399C38.458 23.1016 42.044 16.5905 47.045 17.7091C49.4611 18.2491 51.1235 19.9543 51.7221 22.5121C52.0976 24.1104 52.0241 25.8732 51.9561 27.5784C51.9099 28.7161 51.8636 29.8922 51.9561 30.8956C52.3642 35.2382 54.5654 42.9719 60.2085 44.8964C67.1113 47.2514 74.6644 42.5168 76.7649 40.6718C78.1824 39.4299 80.3292 39.5779 81.5645 41.0063C82.797 42.4346 82.6501 44.5976 81.2325 45.8423C78.2396 48.4686 71.5925 52.3999 64.2299 52.3999C62.1947 52.3999 60.1078 52.1011 58.0263 51.391C47.0341 47.6407 45.3472 33.278 45.1839 31.5399C45.0479 30.0759 45.1077 28.601 45.1594 27.2988C45.1812 26.7423 44.4602 26.512 44.1609 26.9808C43.8616 27.4496 43.565 27.954 43.2276 28.5654C42.5392 29.8127 41.9298 31.1698 41.3611 32.7132C40.3979 35.3259 38.5858 38.7363 35.4296 40.1509C33.5903 40.9734 31.5742 40.9925 29.5989 40.2003C25.991 38.7555 23.6674 34.8982 23.9531 30.8244C24.0102 30.0156 24.1844 29.2014 24.4864 28.3351C25.123 26.5175 25.6182 25.0096 26.0073 23.7266C26.7474 21.2812 26.1978 18.6631 24.5326 16.7221C22.9137 14.836 20.6037 13.9642 18.193 14.3315C16.3564 14.6112 15.2654 15.4747 14.6559 17.1333C14.1308 18.5617 14.1879 20.0092 14.1988 20.2203C14.1988 20.2367 14.2015 20.2504 14.2043 20.2669C15.0368 25.1577 7.54632 25.78 7.42388 20.8481C7.42388 20.8481 7.19533 17.9311 8.16396 15.069C9.5788 10.8937 12.7785 8.22623 17.1754 7.5573C21.8743 6.84178 26.5488 8.59359 29.6805 12.2453C32.8802 15.9792 33.9386 21.0208 32.5129 25.7279C32.0966 27.1014 31.9578 27.6305 31.2912 29.5413C31.196 29.8182 30.8042 30.8655 30.7362 31.3041C30.5539 32.4884 30.8749 33.1793 31.6041 33.522C32.9537 34.158 33.9495 32.7215 34.9834 30.3254Z" fill="white"/>
</g>
<defs>
<filter id="filter0_d_209_1273" x="0.00039053" y="-9.77516e-05" width="89.8" height="59.8" filterUnits="userSpaceOnUse" color-interpolation-filters="sRGB">
<feFlood flood-opacity="0" result="BackgroundImageFix"/>
<feColorMatrix in="SourceAlpha" type="matrix" values="0 0 0 0 0 0 0 0 0 0 0 0 0 0 0 0 0 0 127 0" result="hardAlpha"/>
<feOffset/>
<feGaussianBlur stdDeviation="3.7"/>
<feComposite in2="hardAlpha" operator="out"/>
<feColorMatrix type="matrix" values="0 0 0 0 1 0 0 0 0 1 0 0 0 0 1 0 0 0 0.25 0"/>
<feBlend mode="normal" in2="BackgroundImageFix" result="effect1_dropShadow_209_1273"/>
<feBlend mode="normal" in="SourceGraphic" in2="effect1_dropShadow_209_1273" result="shape"/>
</filter>
</defs>
</svg>
