<svg width="129" height="54" viewBox="0 0 129 54" fill="none" xmlns="http://www.w3.org/2000/svg">
<path d="M6.64992 41.0344C6.64992 42.2812 6.03951 42.9029 4.81546 42.9029H1.83446C0.61041 42.9029 0 42.2812 0 41.0344V12.541C0 11.2943 0.61041 10.6726 1.83446 10.6726H4.81546C5.21271 10.6726 5.53245 10.7121 5.7779 10.7877C6.02336 10.8667 6.23652 11.0443 6.42061 11.3239L15.0891 24.495L22.976 12.7252C23.1891 12.3831 23.412 12.1101 23.6413 11.9095C23.8706 11.7088 24.2291 11.6068 24.72 11.6068H27.701C28.925 11.6068 29.5355 12.2318 29.5355 13.4752V41.9687C29.5355 43.2154 28.925 43.8371 27.701 43.8371H24.72C23.4959 43.8371 22.8855 43.2154 22.8855 41.9687V23.9391L17.2433 32.393C17.0301 32.7055 16.8299 32.8996 16.6458 32.9785C16.4617 33.0575 16.2647 33.0937 16.0483 33.0937H13.71C13.4968 33.0937 13.2901 33.0476 13.0899 32.9522C12.8897 32.8601 12.6991 32.6562 12.5183 32.3437L6.64669 23.3766V41.0344H6.64992Z" fill="white"/>
<path d="M48.9815 41.0345V39.3996C48.1256 40.7713 47.0307 41.791 45.7033 42.4588C44.3727 43.1266 43.0647 43.4621 41.7825 43.4621C39.5508 43.4621 37.7002 42.6923 36.2339 41.1496C34.7676 39.6068 34.0312 37.1397 34.0312 33.745V21.4127C34.0312 20.166 34.6417 19.5443 35.8657 19.5443H38.6174C39.8414 19.5443 40.4519 20.1693 40.4519 21.4127V31.643C40.4519 33.3568 40.7651 34.6266 41.3917 35.4489C42.0183 36.2746 42.8806 36.6858 43.9819 36.6858C44.9896 36.6858 45.868 36.4687 46.6206 36.0312C47.3698 35.5969 47.9512 34.9193 48.3646 33.9983C48.778 33.0805 48.9847 31.9029 48.9847 30.4719V19.541C48.9847 18.2943 49.5951 17.6726 50.8191 17.6726H53.5708C54.7949 17.6726 55.4053 18.2976 55.4053 19.541V41.0279C55.4053 42.2746 54.7949 42.8963 53.5708 42.8963H50.8191C49.5951 42.8963 48.9847 42.2746 48.9847 41.0279L48.9815 41.0345Z" fill="white"/>
<path d="M108.014 42.4686C105.599 42.4686 103.49 41.9554 101.684 40.9258C99.8789 39.8995 98.4804 38.4587 97.4889 36.6067C96.4941 34.7547 96 32.6297 96 30.2317C96 27.9883 96.4263 25.9422 97.2854 24.0903C98.1413 22.2383 99.4235 20.758 101.138 19.6528C102.85 18.5475 104.975 17.9949 107.514 17.9949C109.5 17.9949 111.234 18.4225 112.72 19.2811C114.202 20.1363 115.359 21.3534 116.182 22.9258C117.009 24.4982 117.419 26.3765 117.419 28.5541C117.419 29.4883 117.319 30.1725 117.122 30.61C116.922 31.0475 116.428 31.3107 115.63 31.4028L102.834 32.8962C103.293 33.9225 104.026 34.7646 105.037 35.4192C106.044 36.0738 107.33 36.3995 108.89 36.3995C109.778 36.3995 110.685 36.1824 111.619 35.7449C112.552 35.3107 113.398 34.8732 114.164 34.4357C114.5 34.2186 114.829 34.1955 115.149 34.3666C115.469 34.5376 115.708 34.8403 115.859 35.2778L116.777 37.7054C116.928 38.1429 117.028 38.4982 117.074 38.7811C117.119 39.0607 116.957 39.3567 116.592 39.6692C115.462 40.5738 114.115 41.2646 112.555 41.7482C110.995 42.2317 109.484 42.4718 108.014 42.4718V42.4686ZM107.052 24.064C105.86 24.064 104.882 24.3534 104.116 24.9291C103.351 25.5047 102.831 26.4784 102.556 27.8501L110.811 26.8699C110.598 26.0278 110.162 25.3534 109.503 24.837C108.844 24.3238 108.027 24.0672 107.049 24.0672L107.052 24.064Z" fill="white"/>
<path d="M72.7199 27.5079C73.6565 25.3139 74.4284 23.2678 75.4457 21.406C76.8442 18.8402 81.1009 11.0277 87.037 12.3698C89.905 13.0178 91.8783 15.0639 92.5889 18.1329C93.0346 20.0507 92.9474 22.1658 92.8666 24.2119C92.8117 25.577 92.7568 26.9882 92.8666 28.1922C93.3511 33.4027 95.9639 42.6823 102.662 44.9915C110.856 47.8172 119.822 42.1362 122.315 39.9224C123.998 38.4323 126.546 38.6099 128.012 40.3237C129.475 42.0375 129.301 44.6329 127.618 46.1264C124.065 49.2777 116.175 53.9948 107.436 53.9948C105.02 53.9948 102.543 53.6362 100.072 52.7843C87.0241 48.2843 85.0217 31.0507 84.8279 28.9652C84.6665 27.2086 84.7375 25.4389 84.7989 23.8764C84.8247 23.2086 83.9689 22.9323 83.6136 23.4948C83.2583 24.0573 82.9063 24.6625 82.5058 25.3961C81.6887 26.8928 80.9652 28.5211 80.2902 30.3731C79.1469 33.5079 76.996 37.6 73.2495 39.2974C71.0663 40.2843 68.6731 40.3073 66.3283 39.3566C62.0458 37.6231 59.2876 32.9948 59.6267 28.1066C59.6945 27.1362 59.9012 26.1593 60.2597 25.1198C61.0155 22.9389 61.6033 21.1297 62.0651 19.5902C62.9436 16.656 62.2912 13.5145 60.3146 11.1856C58.393 8.92242 55.651 7.87636 52.7895 8.31715C50.6095 8.65268 49.3143 9.68887 48.5909 11.679C47.9676 13.3928 48.0354 15.1297 48.0483 15.3829C48.0483 15.4027 48.0515 15.4191 48.0548 15.4389C49.0431 21.3073 40.1517 22.054 40.0064 16.1362C40.0064 16.1362 39.7351 12.6362 40.8849 9.20202C42.5643 4.19215 46.3624 0.991496 51.5816 0.188865C57.1593 -0.669688 62.7078 1.43229 66.4252 5.81386C70.2233 10.2941 71.4797 16.3435 69.7873 21.9915C69.2932 23.6395 69.1285 24.2744 68.3372 26.5672C68.2241 26.8994 67.7591 28.156 67.6783 28.6823C67.4619 30.1033 67.843 30.9323 68.7086 31.3435C70.3105 32.1066 71.4926 30.3829 72.7199 27.5079Z" fill="white"/>
</svg>
